# AST/ASF file generated using VICON BodyLanguage
# -----------------------------------------------
:version 1.10
:name VICON
:units
  mass 1.0
  length 0.45
  angle deg
:documentation
   .ast/.asf automatically generated from VICON data using
   VICON BodyBuilder and BodyLanguage model FoxedUp or BRILLIANT.MOD
:root
   order TX TY TZ RX RY RZ
   axis XYZ
   position 0 0 0  
   orientation 0 0 0 
:bonedata
  begin
     id 1 
     name lhipjoint
     direction 0.624716 -0.669793 0.401383 
     length 2.38238 
     axis 0 0 0  XYZ
  end
  begin
     id 2 
     name lfemur
     direction 0.34202 -0.939693 0  
     length 6.4574  
     axis 0 0 20  XYZ
    dof rx ry rz
    limits (-160.0 20.0)
           (-70.0 70.0)
           (-60.0 70.0)
  end
  begin
     id 3 
     name ltibia
     direction 0.34202 -0.939693 0   
     length 7.68739   
     axis 0 0 20   XYZ
    dof rx
    limits (-10.0 170.0)
  end
  begin
     id 4 
     name lfoot
     direction 0.0681309 -0.187188 0.979959   
     length 2.46615   
     axis -90 7.62852e-016 20   XYZ
    dof rx rz
    limits (-45.0 90.0)
           (-70.0 20.0)
  end
  begin
     id 5 
     name ltoes
     direction 1.53566e-011 -4.21819e-011 1   
     length 1.2376   
     axis -90 7.62852e-016 20   XYZ
    dof rx
    limits (-90.0 20.0)
  end
  begin
     id 6 
     name rhipjoint
     direction -0.644473 -0.655875 0.393043   
     length 2.43293  
     axis 0 0 0  XYZ 
  end
  begin
     id 7 
     name rfemur
     direction -0.34202 -0.939693 0   
     length 6.7025   
     axis 0 0 -20   XYZ
    dof rx ry rz
    limits (-160.0 20.0)
           (-70.0 70.0)
           (-70.0 60.0)
  end
  begin
     id 8 
     name rtibia
     direction -0.34202 -0.939693 0   
     length 7.80547   
     axis 0 0 -20   XYZ
    dof rx
    limits (-10.0 170.0)
 end
 begin
     id 9 
     name rfoot
     direction -0.0756734 -0.207911 0.975216   
     length 2.40315  
     axis -90 -7.62852e-016 -20   XYZ
    dof rx rz
    limits (-45.0 90.0)
           (-20.0 70.0)
  end
  begin
     id 10 
     name rtoes
     direction -1.5353e-011 -4.21879e-011 1   
     length 1.20477   
     axis -90 -7.62852e-016 -20   XYZ
    dof rx
    limits (-90.0 20.0)
  end
  begin
     id 11 
     name lowerback
     direction 0.0160353 0.987463 -0.157037   
     length 2.18572   
     axis 0 0 0   XYZ
    dof rx ry rz
    limits (-20.0 45.0)
           (-30.0 30.0)
           (-30.0 30.0)
  end
  begin
     id 12 
     name upperback
     direction -0.00499661 0.999756 0.0215076   
     length 2.18016   
     axis 0 0 0   XYZ
    dof rx ry rz
    limits (-20.0 45.0)
           (-30.0 30.0)
           (-30.0 30.0)
  end
  begin
     id 13 
     name thorax
     direction -0.00921346 0.995333 0.0960619   
     length 2.24923   
     axis 0 0 0   XYZ
    dof rx ry rz
    limits (-20.0 45.0)
           (-30.0 30.0)
           (-30.0 30.0)
  end
  begin
     id 14 
     name lowerneck
     direction 0.0274184 0.991181 0.12965   
     length 1.70911   
     axis 0 0 0   XYZ
    dof rx ry rz
    limits (-20.0 45.0)
           (-30.0 30.0)
           (-30.0 30.0)
  end
  begin
     id 15 
     name upperneck
     direction 0.0015627 0.999959 -0.00893559   
     length 1.69312   
     axis 0 0 0   XYZ
    dof rx ry rz
    limits (-20.0 45.0)
           (-30.0 30.0)
           (-30.0 30.0)
  end
  begin
     id 16
     name head
     direction -0.00230242 0.999856 -0.0168327  
     length 1.80241  
     axis 0 0 0   XYZ
    dof rx ry rz
    limits (-20.0 45.0)
           (-30.0 30.0)
           (-30.0 30.0)
  end
  begin
     id 17 
     name lclavicle
     direction 0.955523 0.290741 -0.0494489  
     length 3.84275  
     axis 0 0 0   XYZ
    dof ry rz
    limits (-20.0 10.0)
           (0.0 20.0)
  end
  begin
     id 18 
     name lhumerus
     direction 1 -4.48967e-011 -3.18382e-028   
     length 5.17714   
     axis 180 -30 -90   XYZ
    dof rx ry rz
    limits (-60.0 90.0)
           (-90.0 90.0)
           (-90.0 90.0)
  end
  begin
     id 19
     name lradius
     direction 1 -4.48968e-011 -2.22911e-027   
     length 3.43679   
     axis 180 -30 -90   XYZ
    dof rx
    limits (-10.0 170.0)
  end
  begin
     id 20
     name lwrist
     direction 1 -4.48951e-011 -6.32245e-027   
     length 1.7184   
     axis 3.57107e-015 90 90   XYZ
    dof ry
    limits (-180.0 0.0)
 end
  begin
     id 21 
     name lhand
     direction 1 -4.48924e-011 -1.26431e-026   
     length 0.573117   
     axis 8.06912e-015 90 90   XYZ
    dof rx rz
    limits (-90.0 90.0)
           (-45.0 45.0)
  end
  begin
     id 22 
     name lfingers
     direction 1 -4.49001e-011 -2.52965e-026   
     length 0.462062   
     axis 1.61381e-014 90 90   XYZ
    dof rx
    limits (0.0 90.0)
  end
  begin
     id 23
     name lthumb
     direction 0.707107 -6.35008e-011 0.707107   
     length 0.663431   
     axis -90 45 -1.62303e-014   XYZ
    dof rx rz
    limits (-45.0 45.0)
           (-45.0 45.0)
  end
  begin
     id 24 
     name rclavicle
     direction -0.963917 0.256881 -0.0698287   
     length 3.73057  
     axis 0 0 0   XYZ 
    dof ry rz
    limits (-10.0 20.0)
           (-20.0 0.0)
  end
  begin
     id 25 
     name rhumerus
     direction -1 -4.48962e-011 -2.73982e-027  
     length 5.23908   
     axis 180 30 90   XYZ
    dof rx ry rz
    limits (-90.0 60.0)
           (-90.0 90.0)
           (-90.0 90.0)
  end
  begin
     id 26 
     name rradius
     direction -1 -4.48968e-011 -4.33218e-027   
     length 3.46485   
     axis 180 30 90   XYZ
    dof rx
    limits (-10.0 170.0)
  end
  begin
     id 27 
     name rwrist
     direction -1 -4.48989e-011 -6.32372e-027   
     length 1.73243   
     axis 3.57107e-015 -90 -90   XYZ
    dof ry
    limits (-180.0 0.0)
  end
  begin
     id 28
     name rhand
     direction -1 -4.48948e-011 -1.26448e-026   
     length 0.608752   
     axis 8.06912e-015 -90 -90   XYZ
    dof rx rz
    limits (-90.0 90.0)
           (-45.0 45.0)
  end
  begin
     id 29
     name rfingers
     direction -1 -4.48962e-011 -2.52913e-026   
     length 0.490792   
     axis 1.61381e-014 -90 -90   XYZ
    dof rx
    limits (0.0 90.0)
  end
  begin
     id 30
     name rthumb
     direction -0.707107 -6.34878e-011 0.707107   
     length 0.704682   
     axis -90 -45 1.62303e-014   XYZ
    dof rx rz
    limits (-45.0 45.0)
           (-45.0 45.0)
  end
:hierarchy
  begin
    root lhipjoint rhipjoint lowerback
    lhipjoint lfemur
    lfemur ltibia
    ltibia lfoot
    lfoot ltoes
    rhipjoint rfemur
    rfemur rtibia
    rtibia rfoot
    rfoot rtoes
    lowerback upperback
    upperback thorax
    thorax lowerneck lclavicle rclavicle
    lowerneck upperneck
    upperneck head
    lclavicle lhumerus
    lhumerus lradius
    lradius lwrist
    lwrist lhand lthumb
    lhand lfingers
    rclavicle rhumerus
    rhumerus rradius
    rradius rwrist
    rwrist rhand rthumb
    rhand rfingers
  end

#!OML:ASF G:\JayActor3\Patient Classification 1\Patient 1\Session 6\male.ASF
:FULLY-SPECIFIED
:DEGREES
63
root 9.06658 14.1586 -4.20501 18.1985 -87.7243 -8.36762
lowerback 19.9229 -1.59512 1.78056
upperback 0.718164 -1.81764 -0.335588
thorax -10.4767 -0.989006 -0.859801
lowerneck -13.7647 0.505072 2.7636
upperneck -0.861966 0.0695056 0.52019
head 2.09253 -0.00958931 -0.310835
rclavicle 5.2181e-015 1.15295e-014
rhumerus 23.9586 8.25775 -65.2639
rradius 76.1721
rwrist 17.9901
rhand -1.01591 -10.5973
rfingers 7.12502
rthumb 24.617 -39.0342
lclavicle 5.2181e-015 1.15295e-014
lhumerus 20.335 -10.6833 63.801
lradius 77.5142
lwrist -1.28294
lhand -5.21003 16.1792
lfingers 7.12502
lthumb 20.5916 45.107
rfemur -55.2086 -14.8179 23.1449
rtibia 79.6896
rfoot -31.8622 -8.37692
rtoes -12.517
lfemur -53.7961 15.5064 -17.3733
ltibia 73.3953
lfoot -26.472 1.31364
ltoes -12.1793
64
root 9.06836 14.1531 -4.20935 18.2178 -87.6418 -8.3188
lowerback 19.9068 -1.61546 1.79296
upperback 0.685203 -1.83884 -0.320252
thorax -10.5052 -0.998937 -0.843887
lowerneck -13.7653 0.501846 2.75759
upperneck -0.839718 0.0665411 0.5206
head 2.10012 -0.0104835 -0.30988
rclavicle 3.18055e-015 -1.47101e-014
rhumerus 23.9426 8.26638 -65.2567
rradius 76.1935
rwrist 18.0022
rhand -0.999602 -10.5942
rfingers 7.12502
rthumb 24.6326 -39.029
lclavicle 3.18055e-015 -1.47101e-014
lhumerus 20.3369 -10.6918 63.8127
lradius 77.5258
lwrist -1.28989
lhand -5.21754 16.1649
lfingers 7.12502
lthumb 20.5844 45.0935
rfemur -55.3355 -14.8392 23.2045
rtibia 79.7693
rfoot -31.8914 -8.40455
rtoes -12.4851
lfemur -53.9501 15.4607 -17.3574
ltibia 73.4685
lfoot -26.4508 1.29535
ltoes -12.2388
65
root 9.06777 14.1493 -4.21234 18.4808 -87.611 -8.54783
lowerback 19.9044 -1.61871 1.80738
upperback 0.66475 -1.83829 -0.312965
thorax -10.527 -0.999098 -0.844045
lowerneck -13.7587 0.497668 2.75266
upperneck -0.825611 0.0621882 0.52578
head 2.10361 -0.012084 -0.307632
rclavicle -2.57923e-014 3.97569e-015
rhumerus 23.9209 8.27246 -65.2518
rradius 76.218
rwrist 18.0124
rhand -0.985088 -10.5909
rfingers 7.12502
rthumb 24.6465 -39.0239
lclavicle -2.57923e-014 3.97569e-015
lhumerus 20.3416 -10.7023 63.8252
lradius 77.535
lwrist -1.29792
lhand -5.215 16.155
lfingers 7.12502
lthumb 20.5868 45.0834
rfemur -55.4013 -14.8228 23.243
rtibia 79.8251
rfoot -31.9158 -8.42185
rtoes -12.4564
lfemur -54.0329 15.4527 -17.3354
ltibia 73.5343
lfoot -26.4558 1.29107
ltoes -12.3008
66
root 9.06665 14.1458 -4.21485 20.1468 -87.6354 -10.1997
lowerback 19.9275 -1.60111 1.85085
upperback 0.646536 -1.80283 -0.299688
thorax -10.56 -0.984264 -0.863634
lowerneck -13.7442 0.493186 2.74933
upperneck -0.818316 0.0572839 0.535466
head 2.10334 -0.0139462 -0.304215
rclavicle 1.83379e-014 -1.98785e-015
rhumerus 23.8923 8.27902 -65.2516
rradius 76.2469
rwrist 18.0203
rhand -0.97319 -10.5911
rfingers 7.12502
rthumb 24.6579 -39.0225
lclavicle 1.83379e-014 -1.98785e-015
lhumerus 20.3454 -10.7159 63.8343
lradius 77.5427
lwrist -1.30321
lhand -5.20146 16.1522
lfingers 7.12502
lthumb 20.5998 45.0792
rfemur -55.4401 -14.722 23.3214
rtibia 79.8547
rfoot -31.9249 -8.45407
rtoes -12.4183
lfemur -54.0875 15.5091 -17.2587
ltibia 73.5961
lfoot -26.4601 1.28583
ltoes -12.352
67
root 9.06426 14.1433 -4.21654 22.6242 -87.7005 -12.6895
lowerback 19.9689 -1.56803 1.90874
upperback 0.635306 -1.74382 -0.287392
thorax -10.5952 -0.959256 -0.899023
lowerneck -13.7219 0.488007 2.74587
upperneck -0.816433 0.051592 0.549774
head 2.09983 -0.0161495 -0.299311
rclavicle -2.06736e-014 1.23246e-014
rhumerus 23.8582 8.28503 -65.2541
rradius 76.2783
rwrist 18.0247
rhand -0.964814 -10.5901
rfingers 7.12502
rthumb 24.6659 -39.0204
lclavicle -2.06736e-014 1.23246e-014
lhumerus 20.3491 -10.733 63.8397
lradius 77.5479
lwrist -1.30302
lhand -5.17871 16.1578
lfingers 7.12502
lthumb 20.6217 45.0824
rfemur -55.4361 -14.5735 23.4073
rtibia 79.8626
rfoot -31.9247 -8.49256
rtoes -12.3928
lfemur -54.0947 15.6088 -17.1554
ltibia 73.6528
lfoot -26.4777 1.28161
ltoes -12.3858
68
root 9.06 14.1423 -4.21739 24.3009 -87.7713 -14.394
lowerback 20.0027 -1.53556 1.94284
upperback 0.630455 -1.6929 -0.289375
thorax -10.6189 -0.937296 -0.934538
lowerneck -13.6941 0.482576 2.74112
upperneck -0.814361 0.0458504 0.569265
head 2.09533 -0.0181831 -0.29251
rclavicle 1.28216e-014 -3.18055e-015
rhumerus 23.8171 8.29431 -65.2604
rradius 76.3137
rwrist 18.0287
rhand -0.956701 -10.5922
rfingers 7.12502
rthumb 24.6737 -39.0215
lclavicle 1.28216e-014 -3.18055e-015
lhumerus 20.3514 -10.7527 63.8401
lradius 77.5465
lwrist -1.29446
lhand -5.15116 16.1701
lfingers 7.12502
lthumb 20.6482 45.0917
rfemur -55.3951 -14.4576 23.4406
rtibia 79.8623
rfoot -31.9294 -8.50603
rtoes -12.3765
lfemur -54.0547 15.693 -17.0916
ltibia 73.6968
lfoot -26.5157 1.28752
ltoes -12.4131
